<?xml version="1.0" encoding="utf-8"?>
<!-- Generated by IcoMoon.io -->
<!DOCTYPE svg PUBLIC "-//W3C//DTD SVG 1.1//EN" "http://www.w3.org/Graphics/SVG/1.1/DTD/svg11.dtd">
<svg fill="#FFFFFF" version="1.1" xmlns="http://www.w3.org/2000/svg" xmlns:xlink="http://www.w3.org/1999/xlink" width="512" height="512" viewBox="0 0 512 512">
<g>
</g>
	<path d="M226.253 74.722h68.403v124.559h-68.403v-124.559zM260.741 116.418c-11.684 0-20.593 9.462-20.593 20.603 0 11.1 8.909 20.562 20.593 20.562 11.111 0 20.009-9.462 20.009-20.562 0-11.141-8.899-20.603-20.009-20.603v0zM250.173 63.6h20.562v-51.159h-20.562v51.159zM188.989 176.476h32.256l-22.784 96.778h-32.256l22.784-96.778zM194.55 291.021l-32.798 140.165h-32.809l32.809-140.165h32.798zM333.005 176.476h-32.236l22.241 96.778h32.809l-22.815-96.778zM327.465 291.021l32.798 140.165h32.256l-32.809-140.165h-32.246zM146.186 499.558h-32.256l12.779-53.965h31.703l-12.226 53.965zM389.192 499.558h8.878l-15.012-64.522h-7.772l13.906 64.522zM121.139 277.678h122.91v8.899h-122.91v-8.899zM267.971 277.678h123.443v8.899h-123.443v-8.899zM256.276 241.541v0c4.464 0 8.325 4.976 8.325 11.663v57.856c0 6.676-3.87 11.663-8.325 11.663v0c-5.007 0-8.899-4.976-8.899-11.663v-57.856c0-6.686 3.891-11.663 8.899-11.663z" fill="#FFFFFF" />
</svg>
