<?xml version="1.0" encoding="UTF-8" standalone="no"?>
<svg width="968px" height="911px" viewBox="0 0 968 911" version="1.1" xmlns="http://www.w3.org/2000/svg" xmlns:xlink="http://www.w3.org/1999/xlink" xmlns:sketch="http://www.bohemiancoding.com/sketch/ns">
    <!-- Generator: Sketch 3.0 (7573) - http://www.bohemiancoding.com/sketch -->
    <title>Imported Layers</title>
    <description>Created with Sketch.</description>
    <defs></defs>
    <g id="Page-1" stroke="none" stroke-width="1"  fill-rule="evenodd" sketch:type="MSPage">
        <g id="Imported-Layers" sketch:type="MSLayerGroup" fill="#FFFFFF">
            <path d="M656,830.833501 C701.777982,836.058599 749.534967,823.789796 788.338121,792.823089 C827.150939,761.848627 849.789655,717.920961 855,672.017646 L811.119852,667 C807.190834,701.629123 790.114199,734.761483 760.829201,758.137741 C731.548068,781.500427 695.527887,790.74856 661.001622,786.812772 L656,830.833501" id="Fill-1" sketch:type="MSShapeGroup"></path>
            <path d="M810.279507,820.013509 C763.865431,856.952618 706.754127,871.558164 652.002761,865.325767 L647,909.322576 C713.004672,916.831674 781.900172,899.219389 837.870258,854.674315 C893.855845,810.156364 926.476483,747.012903 934,681.006066 L890.017553,676 C883.77282,730.723816 856.712959,783.11121 810.279507,820.013509" id="Fill-2" sketch:type="MSShapeGroup"></path>
            <path d="M637.508994,456.460088 L599.98047,412 C597.261489,415.570509 594.17597,418.91653 590.597854,421.92195 L457.340659,533.944961 C454.074779,536.69493 450.616903,539.038499 447,540.983411 L484.348164,585.217076 C491.135919,593.269589 503.278242,594.297199 511.336276,587.521941 L635.208915,483.390818 C643.266949,476.61556 644.306445,464.500989 637.508994,456.460088" id="Fill-3" sketch:type="MSShapeGroup"></path>
            <path d="M523.414181,342.012825 L390.314607,454.379125 C386.994188,457.174161 384.231693,460.369044 382,463.837607 L434.272375,526 C438.055792,524.381208 441.668733,522.191762 444.979465,519.40449 L578.088725,407.03819 C581.722976,403.977236 584.671445,400.40386 587,396.537392 L535.258427,335 C531.056567,336.640143 527.058117,338.951871 523.414181,342.012825" id="Fill-4" sketch:type="MSShapeGroup"></path>
            <path d="M377.856905,440.029172 L510.657561,327.838591 C514.205817,324.830873 518.038167,322.34253 522,320.288289 L482.101439,272.794645 C475.337333,264.732721 463.239246,263.699787 455.207354,270.474904 L331.76822,374.764412 C323.738261,381.549219 322.700453,393.680863 329.476155,401.733097 L369.185321,449 C371.713164,445.782982 374.610134,442.763637 377.856905,440.029172" id="Fill-5" sketch:type="MSShapeGroup"></path>
            <path d="M385.13498,513.68678 C372.819788,499.048023 372.080644,478.45577 381.922321,463.152057 L369.191967,448 C351.468024,470.538514 351.316703,503.263301 370.480135,526.058464 C389.624166,548.841962 421.830294,554.245217 447,540.563064 L434.269646,525.420729 C417.558389,532.540815 397.438532,528.31776 385.13498,513.68678" id="Fill-6" sketch:type="MSShapeGroup"></path>
            <path d="M582.87018,347.285533 C594.923066,361.600639 595.856932,381.583073 586.673596,396.763346 L599.499202,412 C616.516526,389.501778 616.442748,357.385625 597.536337,334.916566 C578.633808,312.435843 547.027988,306.920162 522,319.897662 L534.81784,335.124595 C551.32843,328.640706 570.830885,332.980148 582.87018,347.285533" id="Fill-7" sketch:type="MSShapeGroup"></path>
            <path d="M246.466878,295.941739 L272.740166,327.207362 C279.509081,335.264153 291.612311,336.305177 299.636017,329.518164 L416.227239,231.026024 C424.260613,224.239011 425.298861,212.103421 418.529946,204.048568 L392.266325,172.792638 C385.487743,164.735847 373.384514,163.694823 365.360807,170.481836 L248.769585,268.964283 C240.745878,275.751296 239.697963,287.886886 246.466878,295.941739" id="Fill-8" sketch:type="MSShapeGroup"></path>
            <path d="M387.009064,262.53914 L334.907559,306.097393 C326.848484,312.83956 325.664182,324.730817 332.290447,332.538246 C338.907004,340.334118 350.928636,341.200968 358.995477,334.456874 L411.087275,290.906327 C419.144409,284.162233 420.340359,272.265197 413.714095,264.465473 C407.08783,256.65997 395.068139,255.804678 387.009064,262.53914" id="Fill-9" sketch:type="MSShapeGroup"></path>
            <path d="M622.618617,594.28206 C570.271701,638.307335 548.238348,698.178612 573.416551,728 L763,568.583382 C737.829557,538.752312 674.984933,550.268402 622.618617,594.28206" id="Fill-10" sketch:type="MSShapeGroup"></path>
            <path d="M357,164.984012 C341.899932,147.024872 304.197296,153.954662 272.782635,180.464755 C241.350514,206.982624 228.144018,243.04086 243.253786,261 L357,164.984012" id="Fill-11" sketch:type="MSShapeGroup"></path>
            <path d="M704.370214,725.158919 C712.155139,734.470456 725.96324,735.656267 735.21629,727.816303 C744.45775,719.976339 745.638045,706.08096 737.855052,696.786919 C731.856989,689.627338 722.316109,687.294594 714.01734,690.152206 L682.808095,645 L672.915638,653.399823 L663,661.809365 L701.914968,700.408504 C697.709563,708.147383 698.38181,718.00517 704.370214,725.158919" id="Fill-12" sketch:type="MSShapeGroup"></path>
            <path d="M577.196949,539.410176 C563.901888,550.620976 562.198342,570.4913 573.419522,583.795354 C584.62316,597.101357 604.482913,598.795061 617.791619,587.594006 C631.106171,576.383207 632.790225,556.501189 621.598283,543.20688 C610.384899,529.902826 590.511502,528.199377 577.196949,539.410176 L577.196949,539.410176 Z M603.432263,570.644348 C599.218096,574.208463 592.905494,573.66472 589.356216,569.443501 C585.791565,565.222282 586.337312,558.908707 590.547636,555.352278 C594.779097,551.795849 601.084013,552.329985 604.648664,556.562732 C608.203707,560.783951 607.671411,567.08984 603.432263,570.644348 L603.432263,570.644348 Z" id="Fill-13" sketch:type="MSShapeGroup"></path>
            <path d="M695,214.6936 L732.930048,260 L821,185.304458 L783.081529,140 L695,214.6936" id="Fill-14" sketch:type="MSShapeGroup"></path>
            <path d="M147,675.697485 L184.922724,721 L273,646.3064 L235.077276,601 L147,675.697485" id="Fill-15" sketch:type="MSShapeGroup"></path>
            <path d="M963.534294,144.279363 L847.769351,6.77903785 C840.985031,-1.26832599 828.873493,-2.29845052 820.83332,4.48062089 L554.77036,228.774747 C546.741797,235.553819 545.700735,247.675209 552.467639,255.720637 L668.249997,393.220962 C675.013031,401.268326 687.128439,402.298451 695.168612,395.519379 L961.227703,171.223316 C969.260135,164.444245 970.297327,152.324791 963.534294,144.279363 L963.534294,144.279363 Z M908.740935,128.102635 L839.017854,186.906708 L863.774446,216.317449 C866.04103,219.008033 865.689352,223.021666 862.999595,225.288643 C860.323363,227.555621 856.313846,227.215187 854.0376,224.522668 L829.281008,195.10419 L741.0813,269.49083 L765.837892,298.901571 C768.102545,301.59409 767.76246,305.61546 765.074635,307.8747 C762.384877,310.151348 758.363767,309.810915 756.101047,307.118396 L731.354116,277.697984 L661.631034,336.500123 C658.939344,338.7671 654.93176,338.428601 652.665175,335.72641 C650.402455,333.043563 650.752201,329.02993 653.430365,326.762953 L723.153446,267.95888 L685.178009,222.843712 L615.454927,281.63618 C612.765169,283.903157 608.763382,283.562723 606.500662,280.870204 C604.234077,278.17962 604.574161,274.165987 607.25619,271.89901 L676.981204,213.096871 L652.230408,183.684196 C649.958027,180.993611 650.298111,176.978044 652.99753,174.711067 C655.685356,172.446024 659.694873,172.786457 661.957593,175.478976 L686.718049,204.897454 L774.915825,130.510815 L750.159233,101.090402 C747.892648,98.3978834 748.242394,94.3861849 750.930219,92.1192077 C753.610315,89.8502962 757.629494,90.1907296 759.886417,92.8832486 L784.650738,122.303661 L854.377684,63.501522 C857.057781,61.2326106 861.067297,61.573044 863.330017,64.265563 C865.596602,66.9561477 865.256518,70.9717148 862.568692,73.238692 L792.843679,132.040831 L830.807523,177.157932 L900.532536,118.365465 C903.222294,116.098488 907.231811,116.436987 909.498395,119.129506 C911.770777,121.822025 911.421031,125.835658 908.740935,128.102635 L908.740935,128.102635 Z" id="Fill-16" sketch:type="MSShapeGroup"></path>
            <path d="M299.753576,467.780059 C292.98866,459.73464 280.865607,458.70258 272.835172,465.471963 L6.77623034,689.775552 C-1.25613933,696.554617 -2.30299839,708.674059 4.46965731,716.721414 L120.231759,854.221606 C127.01796,862.267025 139.129403,863.299085 147.161773,856.52002 L413.23039,632.226113 C421.260824,625.447048 422.299943,613.32567 415.525352,605.28025 L299.753576,467.780059 L299.753576,467.780059 Z M360.727615,589.102832 L291.021955,647.907787 L315.770807,677.317036 C318.035459,680.009595 317.685713,684.025222 315.005618,686.292234 C312.317794,688.559245 308.306346,688.218806 306.043627,685.516575 L281.285113,656.105393 L193.085444,730.49315 L217.843958,759.904332 C220.108609,762.596891 219.758864,766.618322 217.071039,768.875661 C214.390944,771.152344 210.371768,770.804168 208.107116,768.109675 L183.348603,738.700427 L113.623619,797.503448 C110.945456,799.77046 106.934009,799.422284 104.669358,796.72779 C102.404706,794.037165 102.746723,790.033143 105.434547,787.756461 L175.15953,728.963111 L137.184109,683.83566 L67.4687873,742.638682 C64.7693692,744.905693 60.7695157,744.565254 58.4952028,741.874629 C56.2305514,739.18207 56.5802971,735.166442 59.2603922,732.899431 L128.985376,674.098344 L104.226862,644.687161 C101.96221,641.994602 102.311956,637.980909 104.99978,635.713898 C107.679875,633.446886 111.68939,633.787325 113.963703,636.47795 L138.712556,665.898804 L226.919954,591.512982 L202.163373,562.090193 C199.88906,559.399568 200.238805,555.383941 202.916968,553.118864 C205.616386,550.851853 209.625901,551.192291 211.900214,553.882916 L236.637473,583.30377 L306.364388,524.500749 C309.061874,522.233737 313.061728,522.572242 315.326379,525.264801 C317.59103,527.957361 317.250946,531.971054 314.572783,534.238065 L244.8478,593.041087 L282.823221,638.170471 L352.538543,579.365515 C355.236029,577.088833 359.237815,577.438943 361.502466,580.129568 C363.767118,582.822127 363.427033,586.837755 360.727615,589.102832 L360.727615,589.102832 Z" id="Fill-17" sketch:type="MSShapeGroup"></path>
        </g>
    </g>
</svg>